<svg width="217" height="51" viewBox="0 0 217 51" fill="none" xmlns="http://www.w3.org/2000/svg">
<path fill-rule="evenodd" clip-rule="evenodd" d="M20.0922 49.1446L20.8435 49.7948C21.2567 50.1524 21.6392 50.447 21.6934 50.4494C21.7477 50.4517 22.2448 50.3506 22.7983 50.2246L23.8045 49.9954L24.9239 50.1415C25.5395 50.2218 26.5129 50.3229 27.087 50.3662C28.0366 50.4378 28.2226 50.4254 29.1496 50.2284C29.9066 50.0675 30.772 49.9365 31.5774 49.8516C32.2109 49.7973 32.9009 49.7783 33.9299 49.7734C34.3906 49.8149 35.3627 49.8325 36.1378 49.812L37.5756 49.7744L37.5791 49.7744L37.5793 49.7743L37.5991 49.7738L38.3374 49.4405L38.9179 49.1783C39.0341 49.1419 39.1181 49.135 39.2155 49.1495L39.5949 49.2644C40.0327 49.397 40.2217 49.4079 40.7983 49.3342C40.9889 49.3098 41.1277 49.2926 41.2494 49.2882C41.5112 49.3008 41.7329 49.3568 42.1556 49.4948C42.2323 49.5225 42.3166 49.5535 42.4104 49.588L43.3384 49.9293L44.6749 49.6425L46.0113 49.3557L46.0891 48.8699L46.1293 48.619C46.19 48.4563 46.285 48.3577 46.4804 48.2495L46.862 48.0855L47.5571 47.7869L49.1018 48.4641C49.9513 48.8366 50.6575 49.1284 50.6715 49.1125C50.6853 49.0967 50.7444 48.1291 50.8027 46.9624C50.9079 44.8589 50.8854 43.3308 50.5778 31.7011L50.5201 29.5214L49.9276 29.4619C49.7918 29.4482 49.6576 29.4303 49.5428 29.4112C49.2907 29.3627 49.2065 29.3183 49.1847 29.2424C49.1807 29.1791 49.194 29.081 49.2272 28.9341C49.2348 28.9014 49.2431 28.8662 49.2522 28.8287C49.2922 28.6681 49.3505 28.4607 49.4293 28.1945C49.9744 26.3542 49.9878 26.1675 49.7067 24.3318L49.4626 22.7376L49.6562 22.0877L49.8497 21.4378L49.8223 21.4094L49.8252 21.3988L49.21 20.7589C49.04 20.582 48.864 20.3905 48.7178 20.2248C48.4402 19.8961 48.244 19.6264 48.244 19.5581C48.244 19.5213 48.403 19.2154 48.5974 18.8783C48.8996 18.3541 48.9428 18.2158 48.896 17.923C48.896 17.9229 48.896 17.9229 48.896 17.9228C48.8991 17.8705 48.9004 17.8157 48.9004 17.7569C48.9004 17.5672 48.9133 17.3154 48.9321 17.1056C48.9367 17.077 48.9416 17.049 48.9467 17.0217L49.0522 16.463L49.055 16.4632L49.7549 16.5447C50.1414 16.5897 50.4785 16.6057 50.5038 16.5803C50.5968 16.4873 50.7305 11.094 50.703 8.55092L50.6911 7.45518L50.7082 6.02685L50.675 5.97675L50.6746 5.93679L50.4303 5.56781C50.2959 5.36487 50.1368 5.19822 50.0767 5.19748C50.0375 5.197 49.9798 5.18193 49.9261 5.15986C49.8738 5.12649 49.8323 5.08981 49.8115 5.05842C49.8068 5.01429 49.8229 4.94762 49.8643 4.84683C49.9094 4.7481 49.9745 4.61456 50.0517 4.46261C50.0988 4.37381 50.1535 4.27345 50.2163 4.16001L50.7056 3.27627L50.6062 2.62446C50.5479 2.24186 50.4502 1.92814 50.3697 1.86486C50.2943 1.80557 49.9344 1.54287 49.5697 1.28107L48.9068 0.805076L47.7657 0.921371C47.4833 0.930849 47.1566 0.936746 46.8359 0.937115C46.2244 0.93782 45.856 0.929761 45.5207 0.890624C45.0555 0.811608 44.5061 0.68495 44.2525 0.596557C43.8037 0.440167 43.6682 0.431837 42.9314 0.515297C42.4103 0.574331 41.9267 0.690769 41.6073 0.834106L41.1041 1.05991L40.1883 0.915208C39.6846 0.835619 38.6207 0.653184 37.8241 0.509795C36.7558 0.317498 36.1016 0.249088 35.3309 0.249088H34.286L34.1003 0.889892C33.9981 1.24234 33.8838 1.63015 33.8462 1.75168L33.835 1.7879C33.8213 1.82295 33.8101 1.8481 33.802 1.86115C33.7675 1.91702 33.6257 1.95371 33.2921 1.98089L32.3449 1.99696L30.9253 2.02104L30.6439 1.87632L29.7005 1.36604C28.8763 0.920264 28.1548 0.607054 27.4431 0.386211L26.3972 0.061605L25.4708 0.371814L24.5444 0.682022L23.4514 0.341011L22.3583 0L21.4021 0.243457C20.8003 0.396647 20.1148 0.653665 19.5531 0.936659C19.4657 0.980677 19.38 1.0225 19.2955 1.06222C19.0152 1.17619 18.727 1.2884 18.5074 1.36787L18.2733 1.45257C17.9623 1.54115 17.6402 1.60448 17.282 1.64673L15.5201 1.67269L14.5963 1.6863L13.1979 1.64045L12.6961 1.34001L12.1943 1.03958L9.95607 1.14047L8.47039 1.20744C8.01179 1.21938 7.69431 1.21573 7.36536 1.19085L5.97886 0.992159L4.23988 0.742954L2.75269 0.913592C2.1031 0.988128 1.46316 1.04787 1.14556 1.0654C1.09454 1.06655 1.04977 1.06818 1.01053 1.07058C0.993911 1.07074 0.980007 1.07057 0.969011 1.07005C0.700948 1.05722 0.676407 1.0762 0.713069 1.26797C0.71673 1.28712 0.719211 1.30523 0.720346 1.32254C0.679113 1.41636 0.581047 1.54971 0.460956 1.67333C0.448139 1.68209 0.434769 1.69107 0.420831 1.7003C-0.0314814 1.99962 -0.132809 2.41554 0.183362 2.67503C0.205579 2.69326 0.226095 2.71209 0.245207 2.73232C0.328048 2.85176 0.399638 3.01626 0.459759 3.22449C0.486675 3.33942 0.513799 3.47924 0.544123 3.65204C0.575584 3.83133 0.603446 4.00543 0.627692 4.17464C0.668559 4.57468 0.690196 5.04373 0.692144 5.57903C0.694261 6.15767 0.694383 6.49507 0.67011 6.75764C0.601079 7.18122 0.486641 7.56634 0.326158 7.92551C0.219969 8.16316 0.155701 8.33083 0.137058 8.50571L0.0917861 8.63153L0.149047 8.81819C0.183741 9.03331 0.269996 9.30274 0.411978 9.71325L0.514837 10.0106L0.578846 10.2193L0.359967 11.0391L0.137532 11.8722L0.32508 12.6462L0.512628 13.4203L0.331409 14.838L0.150191 16.2557L0.367732 16.6449C0.39648 16.6964 0.425029 16.7509 0.453269 16.8081C0.501867 16.9113 0.547698 17.0132 0.590816 17.1139C0.802069 17.6264 0.983103 18.2714 1.08101 18.8829C1.08915 18.9337 1.09654 18.9826 1.10318 19.0301C1.13706 19.3665 1.1441 19.714 1.12635 20.0847C1.11406 20.2386 1.09629 20.4123 1.07301 20.6164L0.954208 21.658L1.3051 22.2937C1.34614 22.368 1.383 22.4376 1.41572 22.5026C1.5084 22.7073 1.58115 22.9084 1.61078 23.0426C1.6129 23.0743 1.61093 23.1017 1.6049 23.1247C1.57603 23.2351 1.63507 23.509 1.74058 23.7543C1.75411 23.7858 1.76677 23.8169 1.77865 23.8485C1.83836 24.0854 1.91587 24.7711 1.97501 25.4664C1.97885 25.558 1.98269 25.6552 1.98659 25.7585L2.04301 27.2542C2.00273 27.2817 1.7632 27.1249 1.48934 26.8895L1.39288 26.8066C1.34851 26.7644 1.30694 26.723 1.27105 26.6853C1.12827 26.535 0.982354 26.412 0.946804 26.412C0.91125 26.412 0.793905 26.5548 0.686037 26.7294C0.505907 27.0208 0.493807 27.1235 0.537727 27.9889C0.564025 28.5071 0.710273 29.6471 0.862723 30.5221L1.13991 32.1131L1.46786 32.399C1.64824 32.5562 1.82378 32.6855 1.85796 32.6862C1.95497 32.6883 2.00637 32.9393 2.01759 33.6167L2.01388 34.1877C2.01206 34.466 2.00642 34.8345 1.9982 35.2394C1.99001 35.5422 1.97955 35.8773 1.96692 36.2474C1.9109 37.8883 1.84951 39.2463 1.83045 39.267C1.83044 39.267 1.83042 39.267 1.83041 39.267L1.48901 39.2442C1.46137 39.2398 1.43296 39.2349 1.40412 39.2296C0.797727 39.1185 0.797545 39.1188 0.940474 40.1444C0.954166 40.2426 0.966156 40.3367 0.97644 40.4313L0.960216 42.3927C0.954213 43.1185 0.945223 43.7545 0.932527 44.3118C0.881454 45.5415 0.848036 46.278 0.810745 46.7537C0.770969 47.1423 0.722138 47.429 0.662554 47.6398C0.645068 47.6881 0.625848 47.7347 0.604518 47.7837C0.439187 48.1634 0.419156 48.2916 0.498126 48.4649C0.586623 48.659 0.633631 48.6739 1.01885 48.6288C1.03308 48.6271 1.04689 48.6256 1.06033 48.6241C1.35117 48.6257 1.5189 48.6612 1.73166 48.7822C1.78402 48.8157 1.84227 48.855 1.90891 48.901L2.37554 49.2227L3.27893 49.0923C4.24098 48.9535 4.84837 48.8695 5.2846 48.8303C5.6678 48.8048 5.98054 48.808 6.27783 48.8386C6.39085 48.8554 6.50644 48.8778 6.63695 48.9052L7.36588 49.0581L8.12096 48.8278C8.3349 48.7625 8.5011 48.7123 8.63683 48.6771C9.01926 48.5978 9.23092 48.6358 9.55778 48.7879C9.57621 48.7972 9.59526 48.8068 9.615 48.8168L10.0478 49.0362L11.1487 48.6842C11.3021 48.6352 11.4513 48.5884 11.5894 48.5459C11.9989 48.4372 12.3194 48.3736 12.3752 48.3951C12.4221 48.4131 12.481 48.475 12.5321 48.5543C12.5485 48.5859 12.5643 48.6196 12.5789 48.6547L12.7136 48.977L12.7884 48.9734C12.7938 48.9754 12.7989 48.9764 12.8037 48.9763C13.0274 48.9728 13.2683 48.9594 13.5122 48.9383L13.7513 48.9267C14.6303 48.8842 14.8846 48.8366 15.4148 48.6156L16.0406 48.3547L16.7708 48.6493C17.4067 48.9058 17.6685 48.9568 18.7966 49.0442L20.0922 49.1446ZM40.5033 18.1945C40.4921 18.2492 40.4853 18.2789 40.4835 18.2807C40.4762 18.288 40.0056 17.9363 39.2736 17.3809L30.6834 10.7548C30.6435 10.7217 30.6224 10.7029 30.6221 10.6999C30.6205 10.6857 30.794 10.6263 31.0916 10.5356L36.2391 9.11141C37.5831 8.75696 38.6822 8.48089 38.8468 8.46965L41.1774 10.1052C41.6028 10.4283 41.8419 10.6428 41.8419 10.7057C41.8419 10.7272 41.8216 10.8609 41.7849 11.0829L40.5033 18.1945ZM19.3559 40.4685L11.5853 43.3894L7.10762 39.5514C6.72307 39.2133 6.47253 38.9894 6.46078 38.9704C6.43607 38.9305 6.61203 38.3675 6.93839 37.429L9.21924 31.22C9.30183 31.0042 9.35037 30.8817 9.35603 30.876C9.3777 30.8544 9.63943 31.0611 9.94199 31.3384L18.1687 39.2878C18.8879 39.9921 19.3508 40.4508 19.3559 40.4685ZM67.8755 11.1802H69.9692L70.2505 11.3364L70.6255 11.6177L70.8755 11.8052L71.0943 12.1177L71.2192 12.3989V36.5239L71.1567 37.0239L71.0317 37.5552L70.813 38.1177L70.4067 38.5864L69.9692 38.8677L69.522 38.9875L68.563 39.2114H75.6255L77.6255 39.3677L80.938 39.6802L83.2505 39.7115L88.188 38.899L91.5005 37.399L93.6255 35.8365L95.1255 34.4615L96.2817 32.8678L97.188 31.3678L97.9067 29.7115L98.438 26.899L98.813 24.774L98.3442 21.6802L97.4692 18.6177L96.2817 16.5864L94.5317 14.5239L91.6255 12.7427L88.5005 11.6177L84.6255 10.8989L75.8756 10.8678L75.8756 10.8677L75.8717 10.8678L75.8442 10.8677L75.8443 10.8685L67.9381 11.0864L67.8755 11.1802ZM76.0631 12.7114L76.0344 12.4289L80.188 12.2739L82.563 12.4614L86.188 13.5239L89.063 15.3677L91.6567 18.1802L93.2817 21.8364L93.688 25.5239L93.5317 28.9302L92.9692 31.1177L91.9067 33.7427L90.0005 35.8989L87.188 37.5552L82.8442 38.2114H79.2817L78.1567 37.8364L76.563 36.6489L76.0317 35.8364L76.0631 12.7114ZM122.643 12.0834L125.073 11.8625L125.471 11.9509L125.466 11.8572C125.527 11.9071 125.602 11.9402 125.692 11.9509C126.443 12.0393 128.344 12.216 128.344 12.216L132.41 14.7793L134.929 18.58L136.21 24.723L135.68 31.087L134.089 34.6225L132.365 36.788L129.095 38.2464L125.073 38.158L121.317 36.6112L118.002 33.0315L116.146 29.1424L115.395 25.872L115.572 20.7897L117.516 15.177L120.654 12.7464L122.643 12.0834ZM125.285 10.2745L123.924 10.3157L119.461 11.2438L115.085 13.7186L112.169 17.5635L110.754 21.32L110.312 24.1926L110.401 28.2143L111.948 32.457L113.274 34.5341L116.146 37.1857L119.903 39.3512L123.792 40.0584H127.902L132.41 38.8651L135.68 37.0974L139.481 32.2802L140.851 29.3192L141.381 24.8556L140.762 20.2594L139.834 17.1658L137.315 13.9838L134.929 12.1718L132.012 10.8902L128.653 10.2715L125.294 10.2273L125.29 10.2461L125.285 10.2745ZM152.297 10.3989L151.609 12.7114L151.297 14.2114L151.109 15.2739L151.484 16.0864L152.109 14.8364L152.984 13.5239L154.359 12.8989L162.172 12.7114L162.109 36.8364L161.922 37.3364L161.359 38.3364L160.797 38.5864L158.922 38.7739V39.3989L164.734 39.1489L170.922 39.3989L171.047 38.8364L168.047 38.5864L167.047 37.7114L166.734 36.6489L166.859 12.5239L172.859 12.5864L175.109 13.2114L175.984 14.0864L176.234 15.7739L176.547 16.3989L177.109 15.5239L176.797 10.3989L174.859 10.8364L164.797 10.9614L153.859 10.7739L152.672 10.2114L152.297 10.3989ZM186.857 38.6L187.873 38.1139L190.834 31.2196L190.84 31.2193L190.91 31.0513L190.913 31.0508L199.938 9.7854L208.556 31.1312H216.688L216.732 31.8383L213.462 32.236L210.147 33.0315L209.749 33.6502L211.561 37.0532L213.285 38.6L215.716 38.7326L215.76 39.4839L211.208 39.3955L206.17 39.4839L205.905 38.9535L206.965 38.4232L204.8 32.9873L198.966 32.8106L193.132 32.9431L191.63 37.4068L191.674 37.9813L192.072 38.5558L194.193 38.6442L194.061 39.5281L189.818 39.2629L184.515 39.5723L184.559 38.7326L186.857 38.6ZM194.016 31.0428L193.975 31.0451L194.013 30.9546L194.016 30.9544L194.038 30.8965L194.047 30.8755L194.046 30.8754L198.966 17.6962C198.966 17.6962 204.004 30.2473 203.916 30.6893C203.828 31.1312 203.607 30.9986 203.607 30.9986L194.016 31.0428ZM46.0087 32.6128C46.0398 32.6443 45.1609 34.8577 44.0555 37.5314L42.0457 42.3927L39.4911 42.41L36.9364 42.4274L21.3431 26.1463C12.7668 17.1917 5.73589 9.82338 5.71885 9.77229C5.70182 9.7212 6.54686 9.29273 7.59673 8.82013L9.50558 7.96086L10.6698 8.74602C25.2075 18.5499 45.9659 32.5695 46.0087 32.6128Z" fill="#FFFCFC"/>
</svg>
